<svg width="26" height="16" viewBox="0 0 26 16" fill="none" xmlns="http://www.w3.org/2000/svg">
<path d="M13.0153 5.17075C13.6905 5.17075 14.3592 5.30375 14.983 5.56216C15.6069 5.82057 16.1737 6.19932 16.6512 6.67679C17.1286 7.15426 17.5074 7.7211 17.7658 8.34495C18.0242 8.9688 18.1572 9.63743 18.1572 10.3127C18.1572 10.9879 18.0242 11.6566 17.7658 12.2804C17.5074 12.9043 17.1286 13.4711 16.6512 13.9486C16.1737 14.426 15.6069 14.8048 14.983 15.0632C14.3592 15.3216 13.6905 15.4546 13.0153 15.4546C11.6516 15.4546 10.3437 14.9129 9.37939 13.9486C8.41509 12.9843 7.87336 11.6764 7.87336 10.3127C7.87336 8.94896 8.41509 7.64109 9.37939 6.67679C10.3437 5.71249 11.6516 5.17075 13.0153 5.17075V5.17075ZM13.0153 7.09873C12.1629 7.09873 11.3454 7.43735 10.7427 8.04008C10.1399 8.64281 9.80134 9.46029 9.80134 10.3127C9.80134 11.1651 10.1399 11.9825 10.7427 12.5853C11.3454 13.188 12.1629 13.5266 13.0153 13.5266C13.8677 13.5266 14.6852 13.188 15.2879 12.5853C15.8906 11.9825 16.2292 11.1651 16.2292 10.3127C16.2292 9.46029 15.8906 8.64281 15.2879 8.04008C14.6852 7.43735 13.8677 7.09873 13.0153 7.09873ZM13.0153 0.666992C18.9457 0.666992 24.0626 4.71575 25.4835 10.3898C25.5175 10.5137 25.5264 10.6431 25.5096 10.7705C25.4929 10.8979 25.4508 11.0206 25.3859 11.1315C25.3211 11.2424 25.2347 11.3392 25.1319 11.4162C25.029 11.4933 24.9119 11.549 24.7872 11.5801C24.6626 11.6112 24.533 11.617 24.406 11.5973C24.279 11.5776 24.1573 11.5327 24.048 11.4653C23.9386 11.3979 23.8438 11.3093 23.7692 11.2047C23.6946 11.1001 23.6416 10.9817 23.6134 10.8564C23.0168 8.49705 21.6501 6.40425 19.7296 4.90952C17.8092 3.4148 15.4449 2.60362 13.0113 2.60451C10.5777 2.60539 8.21404 3.41829 6.29469 4.91441C4.37534 6.41053 3.01009 8.50433 2.41524 10.8641C2.35164 11.1105 2.1932 11.3217 1.97446 11.4518C1.75572 11.5818 1.49444 11.6201 1.24759 11.5582C1.00074 11.4964 0.788364 11.3395 0.656766 11.1217C0.525167 10.9039 0.485028 10.6429 0.545103 10.3956C1.24244 7.61632 2.84818 5.14963 5.1074 3.3871C7.36663 1.62457 10.1499 0.667205 13.0153 0.666992Z" fill="#888888"/>
</svg>
